<svg xmlns="http://www.w3.org/2000/svg" xmlns:xlink="http://www.w3.org/1999/xlink" width="500" zoomAndPan="magnify" viewBox="0 0 375 281.25" height="375" preserveAspectRatio="xMidYMid meet" version="1.0"><defs><g/><clipPath id="79ae44a0fb"><path d="M 0.5 0 L 374.5 0 L 374.5 280.503906 L 0.5 280.503906 Z M 0.5 0 " clip-rule="nonzero"/></clipPath><clipPath id="77e0cd82e5"><path d="M 0.5 12 L 366 12 L 366 269 L 0.5 269 Z M 0.5 12 " clip-rule="nonzero"/></clipPath><clipPath id="0a732ff6a9"><path d="M 0.5 145 L 365.523438 145 L 365.523438 256.324219 L 0.5 256.324219 Z M 0.5 145 " clip-rule="nonzero"/></clipPath><clipPath id="b6a192145c"><rect x="0" width="366" y="0" height="112"/></clipPath><clipPath id="f17565ee94"><path d="M 181 11 L 250 11 L 250 80 L 181 80 Z M 181 11 " clip-rule="nonzero"/></clipPath><clipPath id="e359f05d6a"><path d="M 242.957031 11.570312 L 249.480469 18.09375 L 188.425781 79.148438 L 181.902344 72.625 Z M 242.957031 11.570312 " clip-rule="nonzero"/></clipPath><clipPath id="ee033850a3"><path d="M 0.695312 0.457031 L 68.675781 0.457031 L 68.675781 68.195312 L 0.695312 68.195312 Z M 0.695312 0.457031 " clip-rule="nonzero"/></clipPath><clipPath id="180ae07b70"><path d="M 61.957031 0.570312 L 68.480469 7.09375 L 7.425781 68.148438 L 0.902344 61.625 Z M 61.957031 0.570312 " clip-rule="nonzero"/></clipPath><clipPath id="e0922853b4"><rect x="0" width="69" y="0" height="69"/></clipPath><clipPath id="f927c14fa1"><path d="M 115.46875 73.09375 L 142.1875 73.09375 L 142.1875 146.160156 L 115.46875 146.160156 Z M 115.46875 73.09375 " clip-rule="nonzero"/></clipPath><clipPath id="3ac04db164"><path d="M 119.207031 73.09375 L 138.449219 73.09375 C 139.441406 73.09375 140.390625 73.488281 141.09375 74.191406 C 141.792969 74.890625 142.1875 75.84375 142.1875 76.835938 L 142.1875 142.316406 C 142.1875 143.308594 141.792969 144.261719 141.09375 144.960938 C 140.390625 145.664062 139.441406 146.058594 138.449219 146.058594 L 119.207031 146.058594 C 118.214844 146.058594 117.265625 145.664062 116.5625 144.960938 C 115.863281 144.261719 115.46875 143.308594 115.46875 142.316406 L 115.46875 76.835938 C 115.46875 75.84375 115.863281 74.890625 116.5625 74.191406 C 117.265625 73.488281 118.214844 73.09375 119.207031 73.09375 Z M 119.207031 73.09375 " clip-rule="nonzero"/></clipPath><clipPath id="24ac06f1cc"><path d="M 0.46875 0.09375 L 27.1875 0.09375 L 27.1875 73.160156 L 0.46875 73.160156 Z M 0.46875 0.09375 " clip-rule="nonzero"/></clipPath><clipPath id="974cf08ddb"><path d="M 4.207031 0.09375 L 23.449219 0.09375 C 24.441406 0.09375 25.390625 0.488281 26.09375 1.191406 C 26.792969 1.890625 27.1875 2.84375 27.1875 3.835938 L 27.1875 69.316406 C 27.1875 70.308594 26.792969 71.261719 26.09375 71.960938 C 25.390625 72.664062 24.441406 73.058594 23.449219 73.058594 L 4.207031 73.058594 C 3.214844 73.058594 2.265625 72.664062 1.5625 71.960938 C 0.863281 71.261719 0.46875 70.308594 0.46875 69.316406 L 0.46875 3.835938 C 0.46875 2.84375 0.863281 1.890625 1.5625 1.191406 C 2.265625 0.488281 3.214844 0.09375 4.207031 0.09375 Z M 4.207031 0.09375 " clip-rule="nonzero"/></clipPath><clipPath id="786e6b3613"><rect x="0" width="28" y="0" height="74"/></clipPath><clipPath id="2fae33b72f"><path d="M 174.960938 95.425781 L 201.679688 95.425781 L 201.679688 146.152344 L 174.960938 146.152344 Z M 174.960938 95.425781 " clip-rule="nonzero"/></clipPath><clipPath id="d143c4dcea"><path d="M 178.699219 95.425781 L 197.941406 95.425781 C 198.933594 95.425781 199.882812 95.820312 200.585938 96.523438 C 201.285156 97.222656 201.679688 98.175781 201.679688 99.167969 L 201.679688 142.316406 C 201.679688 143.308594 201.285156 144.261719 200.585938 144.960938 C 199.882812 145.664062 198.933594 146.058594 197.941406 146.058594 L 178.699219 146.058594 C 177.707031 146.058594 176.757812 145.664062 176.054688 144.960938 C 175.355469 144.261719 174.960938 143.308594 174.960938 142.316406 L 174.960938 99.167969 C 174.960938 98.175781 175.355469 97.222656 176.054688 96.523438 C 176.757812 95.820312 177.707031 95.425781 178.699219 95.425781 Z M 178.699219 95.425781 " clip-rule="nonzero"/></clipPath><clipPath id="3f4349901c"><path d="M 0.960938 0.425781 L 27.679688 0.425781 L 27.679688 51.152344 L 0.960938 51.152344 Z M 0.960938 0.425781 " clip-rule="nonzero"/></clipPath><clipPath id="b4bd0d40d4"><path d="M 4.699219 0.425781 L 23.941406 0.425781 C 24.933594 0.425781 25.882812 0.820312 26.585938 1.523438 C 27.285156 2.222656 27.679688 3.175781 27.679688 4.167969 L 27.679688 47.316406 C 27.679688 48.308594 27.285156 49.261719 26.585938 49.960938 C 25.882812 50.664062 24.933594 51.058594 23.941406 51.058594 L 4.699219 51.058594 C 3.707031 51.058594 2.757812 50.664062 2.054688 49.960938 C 1.355469 49.261719 0.960938 48.308594 0.960938 47.316406 L 0.960938 4.167969 C 0.960938 3.175781 1.355469 2.222656 2.054688 1.523438 C 2.757812 0.820312 3.707031 0.425781 4.699219 0.425781 Z M 4.699219 0.425781 " clip-rule="nonzero"/></clipPath><clipPath id="e091e94b61"><rect x="0" width="28" y="0" height="52"/></clipPath><clipPath id="d4002a0573"><path d="M 234.515625 73.09375 L 261.234375 73.09375 L 261.234375 146.160156 L 234.515625 146.160156 Z M 234.515625 73.09375 " clip-rule="nonzero"/></clipPath><clipPath id="30c2d0f149"><path d="M 238.253906 73.09375 L 257.496094 73.09375 C 258.488281 73.09375 259.4375 73.488281 260.140625 74.191406 C 260.839844 74.890625 261.234375 75.84375 261.234375 76.835938 L 261.234375 142.316406 C 261.234375 143.308594 260.839844 144.261719 260.140625 144.960938 C 259.4375 145.664062 258.488281 146.058594 257.496094 146.058594 L 238.253906 146.058594 C 237.261719 146.058594 236.3125 145.664062 235.609375 144.960938 C 234.910156 144.261719 234.515625 143.308594 234.515625 142.316406 L 234.515625 76.835938 C 234.515625 75.84375 234.910156 74.890625 235.609375 74.191406 C 236.3125 73.488281 237.261719 73.09375 238.253906 73.09375 Z M 238.253906 73.09375 " clip-rule="nonzero"/></clipPath><clipPath id="ddad021a79"><path d="M 0.515625 0.09375 L 27.234375 0.09375 L 27.234375 73.160156 L 0.515625 73.160156 Z M 0.515625 0.09375 " clip-rule="nonzero"/></clipPath><clipPath id="20d07ac495"><path d="M 4.253906 0.09375 L 23.496094 0.09375 C 24.488281 0.09375 25.4375 0.488281 26.140625 1.191406 C 26.839844 1.890625 27.234375 2.84375 27.234375 3.835938 L 27.234375 69.316406 C 27.234375 70.308594 26.839844 71.261719 26.140625 71.960938 C 25.4375 72.664062 24.488281 73.058594 23.496094 73.058594 L 4.253906 73.058594 C 3.261719 73.058594 2.3125 72.664062 1.609375 71.960938 C 0.910156 71.261719 0.515625 70.308594 0.515625 69.316406 L 0.515625 3.835938 C 0.515625 2.84375 0.910156 1.890625 1.609375 1.191406 C 2.3125 0.488281 3.261719 0.09375 4.253906 0.09375 Z M 4.253906 0.09375 " clip-rule="nonzero"/></clipPath><clipPath id="82237d232c"><rect x="0" width="28" y="0" height="74"/></clipPath><clipPath id="88aed7b68e"><path d="M 125 7 L 195 7 L 195 77 L 125 77 Z M 125 7 " clip-rule="nonzero"/></clipPath><clipPath id="d1757698ac"><path d="M 125.207031 13.894531 L 131.730469 7.371094 L 194.800781 70.441406 L 188.277344 76.964844 Z M 125.207031 13.894531 " clip-rule="nonzero"/></clipPath><clipPath id="655cdafb4e"><path d="M 0.207031 0.148438 L 69.859375 0.148438 L 69.859375 70 L 0.207031 70 Z M 0.207031 0.148438 " clip-rule="nonzero"/></clipPath><clipPath id="92478a3b69"><path d="M 0.207031 6.894531 L 6.730469 0.371094 L 69.800781 63.441406 L 63.277344 69.964844 Z M 0.207031 6.894531 " clip-rule="nonzero"/></clipPath><clipPath id="6c234e0b00"><rect x="0" width="70" y="0" height="70"/></clipPath><clipPath id="430a8242bd"><path d="M 115.46875 0.46875 L 142.1875 0.46875 L 142.1875 27.1875 L 115.46875 27.1875 Z M 115.46875 0.46875 " clip-rule="nonzero"/></clipPath><clipPath id="00ca41bcd9"><path d="M 128.828125 0.46875 C 121.449219 0.46875 115.46875 6.449219 115.46875 13.828125 C 115.46875 21.207031 121.449219 27.1875 128.828125 27.1875 C 136.207031 27.1875 142.1875 21.207031 142.1875 13.828125 C 142.1875 6.449219 136.207031 0.46875 128.828125 0.46875 Z M 128.828125 0.46875 " clip-rule="nonzero"/></clipPath><clipPath id="a98150507f"><path d="M 0.46875 0.46875 L 27.1875 0.46875 L 27.1875 27.1875 L 0.46875 27.1875 Z M 0.46875 0.46875 " clip-rule="nonzero"/></clipPath><clipPath id="81ea7409e2"><path d="M 13.828125 0.46875 C 6.449219 0.46875 0.46875 6.449219 0.46875 13.828125 C 0.46875 21.207031 6.449219 27.1875 13.828125 27.1875 C 21.207031 27.1875 27.1875 21.207031 27.1875 13.828125 C 27.1875 6.449219 21.207031 0.46875 13.828125 0.46875 Z M 13.828125 0.46875 " clip-rule="nonzero"/></clipPath><clipPath id="782e8eb280"><rect x="0" width="28" y="0" height="28"/></clipPath><clipPath id="bab8e991d1"><path d="M 174.960938 59.734375 L 201.679688 59.734375 L 201.679688 86.457031 L 174.960938 86.457031 Z M 174.960938 59.734375 " clip-rule="nonzero"/></clipPath><clipPath id="8acbf7d1d8"><path d="M 188.320312 59.734375 C 180.941406 59.734375 174.960938 65.71875 174.960938 73.09375 C 174.960938 80.472656 180.941406 86.457031 188.320312 86.457031 C 195.699219 86.457031 201.679688 80.472656 201.679688 73.09375 C 201.679688 65.71875 195.699219 59.734375 188.320312 59.734375 Z M 188.320312 59.734375 " clip-rule="nonzero"/></clipPath><clipPath id="1a1a56337b"><path d="M 0.960938 0.734375 L 27.679688 0.734375 L 27.679688 27.457031 L 0.960938 27.457031 Z M 0.960938 0.734375 " clip-rule="nonzero"/></clipPath><clipPath id="af26972a79"><path d="M 14.320312 0.734375 C 6.941406 0.734375 0.960938 6.71875 0.960938 14.09375 C 0.960938 21.472656 6.941406 27.457031 14.320312 27.457031 C 21.699219 27.457031 27.679688 21.472656 27.679688 14.09375 C 27.679688 6.71875 21.699219 0.734375 14.320312 0.734375 Z M 14.320312 0.734375 " clip-rule="nonzero"/></clipPath><clipPath id="b100402350"><rect x="0" width="28" y="0" height="28"/></clipPath><clipPath id="0d5ea361bb"><path d="M 234.515625 0.46875 L 261.234375 0.46875 L 261.234375 27.1875 L 234.515625 27.1875 Z M 234.515625 0.46875 " clip-rule="nonzero"/></clipPath><clipPath id="0b3530e224"><path d="M 247.875 0.46875 C 240.496094 0.46875 234.515625 6.449219 234.515625 13.828125 C 234.515625 21.207031 240.496094 27.1875 247.875 27.1875 C 255.253906 27.1875 261.234375 21.207031 261.234375 13.828125 C 261.234375 6.449219 255.253906 0.46875 247.875 0.46875 Z M 247.875 0.46875 " clip-rule="nonzero"/></clipPath><clipPath id="40e609c0ad"><path d="M 0.515625 0.46875 L 27.234375 0.46875 L 27.234375 27.1875 L 0.515625 27.1875 Z M 0.515625 0.46875 " clip-rule="nonzero"/></clipPath><clipPath id="b0b173604c"><path d="M 13.875 0.46875 C 6.496094 0.46875 0.515625 6.449219 0.515625 13.828125 C 0.515625 21.207031 6.496094 27.1875 13.875 27.1875 C 21.253906 27.1875 27.234375 21.207031 27.234375 13.828125 C 27.234375 6.449219 21.253906 0.46875 13.875 0.46875 Z M 13.875 0.46875 " clip-rule="nonzero"/></clipPath><clipPath id="3d5ec3e6a3"><rect x="0" width="28" y="0" height="28"/></clipPath><clipPath id="c7d21aba4c"><rect x="0" width="366" y="0" height="257"/></clipPath></defs><g clip-path="url(#79ae44a0fb)"><path fill="transparent" d="M 0.5 0 L 374.5 0 L 374.5 280.503906 L 0.5 280.503906 Z M 0.5 0 " fill-opacity="1" fill-rule="nonzero"/><path fill="transparent" d="M 0.5 0 L 374.5 0 L 374.5 280.503906 L 0.5 280.503906 Z M 0.5 0 " fill-opacity="1" fill-rule="nonzero"/></g><g clip-path="url(#77e0cd82e5)"><g transform="matrix(1, 0, 0, 1, -0.000000000000000056, 12)"><g clip-path="url(#c7d21aba4c)"><g clip-path="url(#0a732ff6a9)"><g transform="matrix(1, 0, 0, 1, -0.000000000000000056, 145)"><g clip-path="url(#b6a192145c)"><g fill="#ffffff" fill-opacity="1"><g transform="translate(0.49867, 88.705292)"><g><path d="M 9.109375 -64.421875 L 16.46875 -64.421875 L 39.9375 -29.265625 L 63.40625 -64.421875 L 70.765625 -64.421875 L 70.765625 0 L 63.5 0 L 63.5 -52.1875 L 40.03125 -17.671875 L 39.671875 -17.671875 L 16.203125 -52.09375 L 16.203125 0 L 9.109375 0 Z M 9.109375 -64.421875 "/></g></g></g><g fill="#ffffff" fill-opacity="1"><g transform="translate(80.372218, 88.705292)"><g><path d="M 29.640625 1.109375 C 26.078125 1.109375 22.789062 0.445312 19.78125 -0.875 C 16.78125 -2.195312 14.175781 -3.976562 11.96875 -6.21875 C 9.757812 -8.457031 8.039062 -11.0625 6.8125 -14.03125 C 5.582031 -17.007812 4.96875 -20.1875 4.96875 -23.5625 L 4.96875 -23.75 C 4.96875 -27.125 5.582031 -30.3125 6.8125 -33.3125 C 8.039062 -36.320312 9.757812 -38.960938 11.96875 -41.234375 C 14.175781 -43.503906 16.796875 -45.296875 19.828125 -46.609375 C 22.867188 -47.929688 26.195312 -48.59375 29.8125 -48.59375 C 33.375 -48.59375 36.671875 -47.929688 39.703125 -46.609375 C 42.742188 -45.296875 45.367188 -43.519531 47.578125 -41.28125 C 49.785156 -39.039062 51.503906 -36.429688 52.734375 -33.453125 C 53.960938 -30.472656 54.578125 -27.296875 54.578125 -23.921875 L 54.578125 -23.75 C 54.578125 -20.375 53.945312 -17.179688 52.6875 -14.171875 C 51.425781 -11.160156 49.691406 -8.519531 47.484375 -6.25 C 45.273438 -3.988281 42.632812 -2.195312 39.5625 -0.875 C 36.5 0.445312 33.191406 1.109375 29.640625 1.109375 Z M 29.8125 -5.25 C 32.394531 -5.25 34.757812 -5.738281 36.90625 -6.71875 C 39.050781 -7.695312 40.890625 -9.015625 42.421875 -10.671875 C 43.960938 -12.328125 45.160156 -14.257812 46.015625 -16.46875 C 46.867188 -18.675781 47.296875 -21.039062 47.296875 -23.5625 L 47.296875 -23.75 C 47.296875 -26.320312 46.851562 -28.726562 45.96875 -30.96875 C 45.082031 -33.207031 43.835938 -35.171875 42.234375 -36.859375 C 40.640625 -38.546875 38.769531 -39.878906 36.625 -40.859375 C 34.476562 -41.835938 32.148438 -42.328125 29.640625 -42.328125 C 27.054688 -42.328125 24.691406 -41.835938 22.546875 -40.859375 C 20.398438 -39.878906 18.570312 -38.5625 17.0625 -36.90625 C 15.5625 -35.25 14.378906 -33.300781 13.515625 -31.0625 C 12.660156 -28.820312 12.234375 -26.441406 12.234375 -23.921875 L 12.234375 -23.75 C 12.234375 -21.164062 12.675781 -18.753906 13.5625 -16.515625 C 14.457031 -14.273438 15.6875 -12.328125 17.25 -10.671875 C 18.820312 -9.015625 20.679688 -7.695312 22.828125 -6.71875 C 24.972656 -5.738281 27.300781 -5.25 29.8125 -5.25 Z M 29.8125 -5.25 "/></g></g></g><g fill="#ffffff" fill-opacity="1"><g transform="translate(139.817273, 88.705292)"><g><path d="M 33.21875 1.015625 C 31.007812 1.015625 28.984375 0.738281 27.140625 0.1875 C 25.304688 -0.363281 23.648438 -1.097656 22.171875 -2.015625 C 20.703125 -2.941406 19.367188 -4.019531 18.171875 -5.25 C 16.972656 -6.476562 15.914062 -7.765625 15 -9.109375 L 15 0 L 7.921875 0 L 7.921875 -67.1875 L 15 -67.1875 L 15 -38.015625 C 15.976562 -39.421875 17.066406 -40.765625 18.265625 -42.046875 C 19.460938 -43.335938 20.796875 -44.457031 22.265625 -45.40625 C 23.742188 -46.363281 25.382812 -47.132812 27.1875 -47.71875 C 29 -48.300781 31.007812 -48.59375 33.21875 -48.59375 C 36.039062 -48.59375 38.816406 -48.039062 41.546875 -46.9375 C 44.273438 -45.832031 46.710938 -44.21875 48.859375 -42.09375 C 51.015625 -39.976562 52.734375 -37.398438 54.015625 -34.359375 C 55.304688 -31.328125 55.953125 -27.847656 55.953125 -23.921875 L 55.953125 -23.75 C 55.953125 -19.882812 55.304688 -16.414062 54.015625 -13.34375 C 52.734375 -10.28125 51.03125 -7.6875 48.90625 -5.5625 C 46.789062 -3.445312 44.367188 -1.820312 41.640625 -0.6875 C 38.910156 0.445312 36.101562 1.015625 33.21875 1.015625 Z M 31.9375 -5.34375 C 34.207031 -5.34375 36.367188 -5.753906 38.421875 -6.578125 C 40.472656 -7.410156 42.25 -8.609375 43.75 -10.171875 C 45.257812 -11.734375 46.457031 -13.648438 47.34375 -15.921875 C 48.238281 -18.191406 48.6875 -20.769531 48.6875 -23.65625 L 48.6875 -23.84375 C 48.6875 -26.65625 48.238281 -29.195312 47.34375 -31.46875 C 46.457031 -33.738281 45.242188 -35.671875 43.703125 -37.265625 C 42.171875 -38.867188 40.394531 -40.097656 38.375 -40.953125 C 36.351562 -41.816406 34.207031 -42.25 31.9375 -42.25 C 29.726562 -42.25 27.59375 -41.800781 25.53125 -40.90625 C 23.476562 -40.019531 21.640625 -38.765625 20.015625 -37.140625 C 18.390625 -35.515625 17.097656 -33.582031 16.140625 -31.34375 C 15.191406 -29.101562 14.71875 -26.628906 14.71875 -23.921875 L 14.71875 -23.75 C 14.71875 -20.988281 15.191406 -18.472656 16.140625 -16.203125 C 17.097656 -13.929688 18.390625 -11.992188 20.015625 -10.390625 C 21.640625 -8.796875 23.476562 -7.554688 25.53125 -6.671875 C 27.59375 -5.785156 29.726562 -5.34375 31.9375 -5.34375 Z M 31.9375 -5.34375 "/></g></g></g><g fill="#ffffff" fill-opacity="1"><g transform="translate(200.91869, 88.705292)"><g><path d="M 28.71875 1.109375 C 25.46875 1.109375 22.398438 0.507812 19.515625 -0.6875 C 16.628906 -1.882812 14.113281 -3.570312 11.96875 -5.75 C 9.820312 -7.925781 8.117188 -10.53125 6.859375 -13.5625 C 5.597656 -16.601562 4.96875 -19.96875 4.96875 -23.65625 L 4.96875 -23.84375 C 4.96875 -27.269531 5.535156 -30.488281 6.671875 -33.5 C 7.804688 -36.507812 9.382812 -39.132812 11.40625 -41.375 C 13.4375 -43.613281 15.847656 -45.375 18.640625 -46.65625 C 21.429688 -47.945312 24.484375 -48.59375 27.796875 -48.59375 C 31.296875 -48.59375 34.425781 -47.929688 37.1875 -46.609375 C 39.945312 -45.296875 42.273438 -43.503906 44.171875 -41.234375 C 46.078125 -38.960938 47.519531 -36.304688 48.5 -33.265625 C 49.476562 -30.234375 49.96875 -26.96875 49.96875 -23.46875 C 49.96875 -22.976562 49.96875 -22.578125 49.96875 -22.265625 C 49.96875 -21.960938 49.9375 -21.597656 49.875 -21.171875 L 12.140625 -21.171875 C 12.390625 -18.585938 13.003906 -16.296875 13.984375 -14.296875 C 14.972656 -12.304688 16.21875 -10.617188 17.71875 -9.234375 C 19.21875 -7.859375 20.914062 -6.816406 22.8125 -6.109375 C 24.71875 -5.410156 26.742188 -5.0625 28.890625 -5.0625 C 32.210938 -5.0625 35.050781 -5.675781 37.40625 -6.90625 C 39.769531 -8.132812 41.9375 -9.757812 43.90625 -11.78125 L 48.3125 -7.828125 C 45.925781 -5.117188 43.195312 -2.953125 40.125 -1.328125 C 37.0625 0.296875 33.257812 1.109375 28.71875 1.109375 Z M 42.796875 -26.40625 C 42.609375 -28.5625 42.160156 -30.617188 41.453125 -32.578125 C 40.753906 -34.546875 39.773438 -36.265625 38.515625 -37.734375 C 37.253906 -39.203125 35.71875 -40.378906 33.90625 -41.265625 C 32.101562 -42.160156 30.003906 -42.609375 27.609375 -42.609375 C 25.523438 -42.609375 23.59375 -42.191406 21.8125 -41.359375 C 20.03125 -40.535156 18.460938 -39.398438 17.109375 -37.953125 C 15.765625 -36.515625 14.660156 -34.8125 13.796875 -32.84375 C 12.941406 -30.882812 12.390625 -28.738281 12.140625 -26.40625 Z M 42.796875 -26.40625 "/></g></g></g><g fill="#ffffff" fill-opacity="1"><g transform="translate(255.394662, 88.705292)"><g><path d="M 7.921875 -47.578125 L 15 -47.578125 L 15 -39.296875 C 16.59375 -41.867188 18.675781 -44.0625 21.25 -45.875 C 23.832031 -47.6875 27.179688 -48.59375 31.296875 -48.59375 C 34.171875 -48.59375 36.726562 -48.128906 38.96875 -47.203125 C 41.207031 -46.285156 43.109375 -44.984375 44.671875 -43.296875 C 46.242188 -41.609375 47.441406 -39.597656 48.265625 -37.265625 C 49.097656 -34.941406 49.515625 -32.367188 49.515625 -29.546875 L 49.515625 0 L 42.421875 0 L 42.421875 -27.796875 C 42.421875 -32.210938 41.285156 -35.707031 39.015625 -38.28125 C 36.742188 -40.863281 33.492188 -42.15625 29.265625 -42.15625 C 27.242188 -42.15625 25.359375 -41.800781 23.609375 -41.09375 C 21.859375 -40.382812 20.335938 -39.367188 19.046875 -38.046875 C 17.765625 -36.734375 16.769531 -35.15625 16.0625 -33.3125 C 15.351562 -31.46875 15 -29.441406 15 -27.234375 L 15 0 L 7.921875 0 Z M 7.921875 -47.578125 "/></g></g></g><g fill="#ffffff" fill-opacity="1"><g transform="translate(312.079099, 88.705292)"><g><path d="M 22.09375 1.015625 C 19.882812 1.015625 17.71875 0.707031 15.59375 0.09375 C 13.476562 -0.519531 11.578125 -1.453125 9.890625 -2.703125 C 8.203125 -3.960938 6.851562 -5.515625 5.84375 -7.359375 C 4.832031 -9.203125 4.328125 -11.347656 4.328125 -13.796875 L 4.328125 -13.984375 C 4.328125 -16.503906 4.816406 -18.710938 5.796875 -20.609375 C 6.773438 -22.515625 8.171875 -24.109375 9.984375 -25.390625 C 11.796875 -26.679688 13.941406 -27.664062 16.421875 -28.34375 C 18.910156 -29.019531 21.660156 -29.359375 24.671875 -29.359375 C 27.734375 -29.359375 30.398438 -29.171875 32.671875 -28.796875 C 34.941406 -28.429688 37.148438 -27.941406 39.296875 -27.328125 L 39.296875 -28.984375 C 39.296875 -33.285156 38.050781 -36.523438 35.5625 -38.703125 C 33.082031 -40.878906 29.601562 -41.96875 25.125 -41.96875 C 22.300781 -41.96875 19.738281 -41.644531 17.4375 -41 C 15.132812 -40.351562 12.878906 -39.507812 10.671875 -38.46875 L 8.5625 -44.265625 C 11.195312 -45.492188 13.863281 -46.457031 16.5625 -47.15625 C 19.257812 -47.863281 22.359375 -48.21875 25.859375 -48.21875 C 32.609375 -48.21875 37.734375 -46.472656 41.234375 -42.984375 C 44.484375 -39.722656 46.109375 -35.085938 46.109375 -29.078125 L 46.109375 0 L 39.296875 0 L 39.296875 -7.171875 C 37.640625 -5.023438 35.414062 -3.125 32.625 -1.46875 C 29.832031 0.1875 26.320312 1.015625 22.09375 1.015625 Z M 23.46875 -4.59375 C 25.675781 -4.59375 27.742188 -4.914062 29.671875 -5.5625 C 31.609375 -6.207031 33.296875 -7.097656 34.734375 -8.234375 C 36.179688 -9.367188 37.316406 -10.71875 38.140625 -12.28125 C 38.972656 -13.851562 39.390625 -15.585938 39.390625 -17.484375 L 39.390625 -22.09375 C 37.609375 -22.582031 35.566406 -23.039062 33.265625 -23.46875 C 30.960938 -23.894531 28.34375 -24.109375 25.40625 -24.109375 C 20.925781 -24.109375 17.488281 -23.21875 15.09375 -21.4375 C 12.695312 -19.664062 11.5 -17.273438 11.5 -14.265625 L 11.5 -14.078125 C 11.5 -12.609375 11.820312 -11.273438 12.46875 -10.078125 C 13.113281 -8.878906 13.988281 -7.878906 15.09375 -7.078125 C 16.195312 -6.285156 17.46875 -5.671875 18.90625 -5.234375 C 20.351562 -4.804688 21.875 -4.59375 23.46875 -4.59375 Z M 23.46875 -4.59375 "/></g></g></g></g></g></g><g clip-path="url(#f17565ee94)"><g clip-path="url(#e359f05d6a)"><g transform="matrix(1, 0, 0, 1, 181, 11)"><g clip-path="url(#e0922853b4)"><g clip-path="url(#ee033850a3)"><g clip-path="url(#180ae07b70)"><path fill="#ffffff" d="M 61.957031 0.570312 L 68.480469 7.09375 L 7.421875 68.152344 L 0.898438 61.628906 Z M 61.957031 0.570312 " fill-opacity="1" fill-rule="nonzero"/></g></g></g></g></g></g><g clip-path="url(#f927c14fa1)"><g clip-path="url(#3ac04db164)"><g transform="matrix(1, 0, 0, 1, 115, 73)"><g clip-path="url(#786e6b3613)"><g clip-path="url(#24ac06f1cc)"><g clip-path="url(#974cf08ddb)"><path fill="#ffffff" d="M 0.46875 0.09375 L 27.1875 0.09375 L 27.1875 73.054688 L 0.46875 73.054688 Z M 0.46875 0.09375 " fill-opacity="1" fill-rule="nonzero"/></g></g></g></g></g></g><g clip-path="url(#2fae33b72f)"><g clip-path="url(#d143c4dcea)"><g transform="matrix(1, 0, 0, 1, 174, 95)"><g clip-path="url(#e091e94b61)"><g clip-path="url(#3f4349901c)"><g clip-path="url(#b4bd0d40d4)"><path fill="#ffffff" d="M 0.960938 0.425781 L 27.679688 0.425781 L 27.679688 51.050781 L 0.960938 51.050781 Z M 0.960938 0.425781 " fill-opacity="1" fill-rule="nonzero"/></g></g></g></g></g></g><g clip-path="url(#d4002a0573)"><g clip-path="url(#30c2d0f149)"><g transform="matrix(1, 0, 0, 1, 234, 73)"><g clip-path="url(#82237d232c)"><g clip-path="url(#ddad021a79)"><g clip-path="url(#20d07ac495)"><path fill="#ffffff" d="M 0.515625 0.09375 L 27.234375 0.09375 L 27.234375 73.054688 L 0.515625 73.054688 Z M 0.515625 0.09375 " fill-opacity="1" fill-rule="nonzero"/></g></g></g></g></g></g><g clip-path="url(#88aed7b68e)"><g clip-path="url(#d1757698ac)"><g transform="matrix(1, 0, 0, 1, 125, 7)"><g clip-path="url(#6c234e0b00)"><g clip-path="url(#655cdafb4e)"><g clip-path="url(#92478a3b69)"><path fill="#ffffff" d="M 0.207031 6.894531 L 6.730469 0.371094 L 69.800781 63.441406 L 63.277344 69.964844 Z M 0.207031 6.894531 " fill-opacity="1" fill-rule="nonzero"/></g></g></g></g></g></g><g clip-path="url(#430a8242bd)"><g clip-path="url(#00ca41bcd9)"><g transform="matrix(1, 0, 0, 1, 115, -0.000000000000023093)"><g clip-path="url(#782e8eb280)"><g clip-path="url(#a98150507f)"><g clip-path="url(#81ea7409e2)"><path fill="#ffffff" d="M 0.46875 0.46875 L 27.1875 0.46875 L 27.1875 27.1875 L 0.46875 27.1875 Z M 0.46875 0.46875 " fill-opacity="1" fill-rule="nonzero"/></g></g></g></g></g></g><g clip-path="url(#bab8e991d1)"><g clip-path="url(#8acbf7d1d8)"><g transform="matrix(1, 0, 0, 1, 174, 59)"><g clip-path="url(#b100402350)"><g clip-path="url(#1a1a56337b)"><g clip-path="url(#af26972a79)"><path fill="#ffffff" d="M 0.960938 0.734375 L 27.679688 0.734375 L 27.679688 27.457031 L 0.960938 27.457031 Z M 0.960938 0.734375 " fill-opacity="1" fill-rule="nonzero"/></g></g></g></g></g></g><g clip-path="url(#0d5ea361bb)"><g clip-path="url(#0b3530e224)"><g transform="matrix(1, 0, 0, 1, 234, -0.000000000000023093)"><g clip-path="url(#3d5ec3e6a3)"><g clip-path="url(#40e609c0ad)"><g clip-path="url(#b0b173604c)"><path fill="#ffffff" d="M 0.515625 0.46875 L 27.234375 0.46875 L 27.234375 27.1875 L 0.515625 27.1875 Z M 0.515625 0.46875 " fill-opacity="1" fill-rule="nonzero"/></g></g></g></g></g></g></g></g></g></svg>